<?xml version="1.0" encoding="UTF-8" standalone="no"?>
<!DOCTYPE svg PUBLIC "-//W3C//DTD SVG 1.1//EN" "http://www.w3.org/Graphics/SVG/1.1/DTD/svg11.dtd">
<svg xmlns="http://www.w3.org/2000/svg" version="1.1" viewBox="0.00 0.00 600.00 600.00">
<path fill="#00f3ff" d="
  M 260.49 401.91
  Q 260.83 400.80 259.68 400.67
  C 229.15 397.19 199.21 390.52 172.20 376.58
  C 137.39 358.61 114.10 327.34 112.01 287.50
  C 110.26 254.27 117.09 221.99 131.33 192.00
  Q 143.77 165.82 160.98 142.47
  C 174.66 123.92 189.30 105.96 206.61 90.67
  C 216.25 82.17 228.27 73.51 238.99 66.79
  C 260.28 53.44 278.36 42.41 295.36 26.22
  Q 303.63 18.33 310.48 10.55
  Q 313.79 6.80 314.02 11.80
  Q 314.40 20.04 312.95 29.49
  Q 310.24 47.26 306.08 64.76
  C 302.02 81.89 296.38 99.26 288.18 114.90
  C 287.15 116.85 285.78 117.68 283.55 118.41
  C 217.63 139.79 183.40 196.38 171.47 261.75
  C 167.70 282.44 168.27 305.94 177.59 325.25
  C 194.19 359.64 231.80 373.23 267.58 373.02
  A 1.58 1.58 0.0 0 0 269.12 371.72
  C 273.07 348.90 276.90 329.53 280.26 303.50
  Q 281.76 291.92 286.74 265.29
  Q 293.55 228.82 304.25 193.30
  C 323.84 128.25 361.91 54.30 442.51 58.07
  Q 456.32 58.72 465.04 60.89
  C 487.39 66.45 504.80 79.04 517.99 97.54
  Q 539.96 128.38 541.87 166.99
  C 543.70 203.90 534.20 241.93 517.45 274.46
  C 490.76 326.30 441.04 364.04 386.32 382.90
  C 358.67 392.43 330.57 397.46 301.51 400.19
  Q 301.00 400.24 300.93 400.75
  C 296.08 439.33 296.94 478.22 291.75 516.75
  Q 290.24 527.97 288.06 533.96
  C 284.65 543.37 278.79 555.85 267.01 555.89
  Q 230.12 556.01 193.25 555.95
  C 189.86 555.94 184.33 555.62 186.40 550.27
  C 188.93 543.70 192.45 537.30 194.18 530.69
  C 198.27 515.05 198.74 500.51 190.62 486.36
  Q 189.93 485.16 191.04 484.33
  L 191.28 484.15
  A 0.89 0.88 -36.1 0 1 192.52 484.34
  C 198.96 493.17 207.99 510.40 221.00 510.07
  C 223.98 509.99 225.66 504.31 226.33 502.00
  C 231.92 482.70 240.80 461.43 247.98 440.31
  C 252.32 427.53 256.49 414.80 260.49 401.91
  Z
  M 309.02 353.62
  C 307.86 360.15 306.96 366.96 305.90 373.73
  A 0.89 0.89 0.0 0 0 306.95 374.74
  C 399.58 356.79 462.37 277.39 473.90 186.26
  C 476.87 162.78 474.70 137.64 465.10 115.82
  C 456.02 95.20 437.98 88.52 416.49 91.35
  C 387.52 95.16 366.74 128.13 356.16 152.21
  C 338.44 192.58 328.22 237.09 321.24 281.13
  Q 315.49 317.43 309.02 353.62
  Z"
/>
</svg>
